<?xml version="1.0" standalone="no"?>
<!DOCTYPE svg PUBLIC "-//W3C//DTD SVG 20010904//EN"
 "http://www.w3.org/TR/2001/REC-SVG-20010904/DTD/svg10.dtd">
<svg version="1.0" xmlns="http://www.w3.org/2000/svg"
 width="218.000000pt" height="229.000000pt" viewBox="0 0 218.000000 229.000000"
 preserveAspectRatio="xMidYMid meet">

<g transform="translate(0.000000,229.000000) scale(0.100000,-0.100000)"
fill="#000000" stroke="none">
<path d="M863 2117 c-15 -25 -36 -39 -91 -60 -135 -54 -267 -156 -344 -270
-21 -31 -63 -106 -93 -166 -62 -125 -101 -166 -149 -157 -33 7 -66 38 -66 64
0 37 -54 -64 -58 -108 -4 -42 -1 -49 27 -73 47 -39 92 -44 148 -16 63 33 101
92 157 246 26 70 62 155 81 188 87 156 213 243 435 300 69 17 85 25 85 40 0
24 -39 45 -82 45 -25 0 -35 -7 -50 -33z"/>
<path d="M1186 2129 c-15 -12 -25 -26 -24 -31 2 -6 46 -21 98 -34 112 -28 237
-86 299 -138 94 -79 147 -166 219 -357 52 -138 65 -162 113 -209 62 -60 141
-66 193 -13 32 32 34 78 6 133 -20 40 -40 60 -40 40 0 -23 -49 -60 -80 -60
-44 0 -70 31 -136 161 -69 140 -96 179 -174 258 -72 73 -167 136 -268 178 -54
22 -78 38 -93 62 -15 25 -25 31 -53 31 -19 0 -45 -9 -60 -21z"/>
<path d="M993 1991 c-117 -30 -217 -111 -270 -219 -36 -71 -38 -82 -38 -167 0
-76 5 -99 27 -147 29 -62 101 -146 154 -179 l34 -21 0 -425 c0 -233 3 -423 8
-421 118 61 218 68 321 22 29 -13 55 -24 57 -24 2 0 4 191 4 425 l0 424 22 12
c46 25 121 106 151 164 30 56 32 67 32 165 0 95 -3 111 -29 167 -36 79 -113
154 -202 195 -54 25 -81 31 -152 34 -48 2 -101 -1 -119 -5z m194 -247 c48 -28
83 -90 83 -148 0 -50 -33 -111 -75 -139 l-35 -22 0 -403 0 -403 -67 3 -68 3
-3 402 c-2 385 -3 402 -21 408 -32 10 -89 81 -97 120 -8 46 9 105 42 145 61
71 152 84 241 34z"/>
<path d="M377 1243 c-41 -93 -50 -143 -44 -255 3 -57 9 -118 13 -135 10 -52
-12 -39 -25 14 -7 25 -18 54 -25 64 -32 47 -181 209 -218 239 l-41 34 6 -105
c24 -385 228 -711 545 -869 84 -42 207 -80 261 -80 l34 0 -26 21 c-15 11 -32
39 -38 62 -27 100 -30 107 -50 107 -10 0 -38 -14 -61 -30 -22 -16 -46 -30 -53
-30 -32 0 -155 74 -202 122 -95 97 -101 147 -25 183 35 16 42 24 37 40 -15 47
-17 65 -6 65 6 0 11 -5 11 -12 0 -25 66 -120 97 -139 42 -26 58 -17 38 21 -18
34 -31 110 -19 110 5 0 17 -26 26 -58 19 -61 73 -162 87 -162 14 0 29 83 48
261 13 131 15 177 5 239 -12 83 -29 130 -47 130 -18 0 -61 -51 -89 -107 -22
-45 -25 -59 -19 -117 9 -100 -13 -82 -27 22 -18 130 -47 246 -76 308 -26 55
-69 114 -84 114 -4 0 -19 -26 -33 -57z"/>
<path d="M1735 1269 c-57 -68 -94 -180 -120 -364 -8 -59 -15 -110 -15 -112 0
-2 -5 -3 -11 -3 -7 0 -8 20 -4 63 6 56 4 70 -18 114 -31 60 -74 113 -92 113
-17 0 -42 -70 -50 -141 -12 -110 34 -477 61 -486 14 -5 83 129 90 178 4 22 10
39 15 39 14 0 11 -43 -6 -90 -19 -53 -19 -60 -1 -60 26 0 72 48 105 110 34 64
60 74 35 14 -8 -20 -14 -37 -12 -39 2 -2 20 -10 40 -18 80 -33 73 -91 -23
-189 -54 -55 -161 -118 -200 -118 -9 0 -35 14 -57 30 -67 48 -79 41 -102 -57
-8 -37 -21 -60 -42 -78 l-30 -25 37 0 c89 0 264 68 381 147 183 125 345 373
394 605 23 106 38 288 24 288 -11 0 -159 -149 -221 -223 -27 -31 -45 -65 -53
-97 -7 -28 -17 -50 -22 -50 -6 0 -8 11 -4 28 15 61 18 213 7 272 -13 64 -39
132 -63 164 -14 17 -16 17 -43 -15z"/>
<path d="M1022 330 c-90 -19 -134 -69 -97 -110 31 -34 109 -53 199 -48 167 9
229 87 110 139 -51 23 -151 32 -212 19z"/>
</g>
</svg>
